<?xml version="1.0" ?><svg id="Layer_1" style="enable-background:new 0 0 24 24;" version="1.1" viewBox="0 0 24 24" xml:space="preserve" xmlns="http://www.w3.org/2000/svg" xmlns:xlink="http://www.w3.org/1999/xlink"><path d="M20.5,0h-17C3.224,0,3,0.224,3,0.5v2C3,2.776,3.224,3,3.5,3H4v20.5  C4,23.776,4.224,24,4.5,24h15c0.276,0,0.5-0.224,0.5-0.5V3h0.5C20.776,3,21,2.776,21,2.5v-2C21,0.224,20.776,0,20.5,0z M17,19  h-2.551c-0.15,0-0.293,0.067-0.388,0.184c-0.095,0.116-0.132,0.27-0.102,0.417C13.986,19.731,14,19.866,14,20c0,1.103-0.898,2-2,2  c-1.103,0-2-0.897-2-2c0-0.134,0.014-0.269,0.041-0.399c0.029-0.147-0.008-0.3-0.103-0.417C9.844,19.067,9.701,19,9.551,19H7V6h4v1  H8.5C8.224,7,8,7.224,8,7.5v4c0,0.223,0.148,0.419,0.362,0.481l7,2C15.408,13.994,15.454,14,15.5,14  c0.107,0,0.213-0.035,0.301-0.101C15.927,13.805,16,13.657,16,13.5v-6C16,7.224,15.776,7,15.5,7H13V6h4V19z M17,4H7V3h10V4z" id="XMLID_133_" style="fill:#303C42;"/><g/><g/><g/><g/><g/><g/><g/><g/><g/><g/><g/><g/><g/><g/><g/></svg>